PathFileType	4	(X/Y/Z)	C:/Users/beibeiliu/ov580/test_trc/User3\sequence.23_training_dense_right.trc
DataRate	CameraRate	NumFrames	NumMarkers	Units	OrigDataRate	OrigDataStartFrame	OrigNumFrames
120	120	8	19	mm	120	184	293
Frame#	Time	ThumbCMC			ThumbMCP			ThumbIP			ThumbTip			IndexMCP			IndexPIP			IndexTip			MiddleMCP			MiddlePIP			MiddleTip			RingMCP			RingPIP			RingTip			PinkyMCP			PinkyPIP			PinkyTip			BackHand1			BackHand2			BackHand3	
		X0	Y0	Z0	X1	Y1	Z1	X2	Y2	Z2	X3	Y3	Z3	X4	Y4	Z4	X5	Y5	Z5	X6	Y6	Z6	X7	Y7	Z7	X8	Y8	Z8	X9	Y9	Z9	X10	Y10	Z10	X11	Y11	Z11	X12	Y12	Z12	X13	Y13	Z13	X14	Y14	Z14	X15	Y15	Z15	X16	Y16	Z16	X17	Y17	Z17	X18	Y18	Z18	
183	1.525	179.843	6.14403	18.0792	160.759	19.2151	-2.15384	124.638	13.588	-10.0008	106.041	0.254047	6.01439	118.408	-8.63915	-35.1692	97.295	-5.75334	-48.1935	76.7429	-1.92824	-58.2268	108.897	-29.8512	-24.8297	84.8381	-28.9242	-37.8584	56.295	-21.048	-59.0222	105.877	-40.9463	-8.93857	81.286	-42.9483	-23.3132	56.8049	-40.7172	-35.1096	103.46	-53.5869	11.3969	86.4378	-53.3002	0.463175	71.828	-59.2017	-10.2822	147.618	-50.4723	12.9294	170.851	-55.4971	36.9094	174.869	-27.4456	7.87432	
184	1.53333	183.456	0.946504	17.3483	166.699	16.7595	-7.06998	135.431	17.0384	-15.3255	112.299	4.98452	-0.423484	128.546	-10.6989	-36.2678	109.577	-1.41356	-55.9455	90.9542	3.79841	-70.4148	111.579	-29.4163	-29.2973	88.9633	-24.3587	-47.5249	62.724	-16.9677	-64.6748	104.185	-38.319	-17.0222	84.5051	-35.0353	-31.2346	64.6839	-30.8244	-44.5753	104.327	-48.9977	10.3905	86.906	-48.7873	-4.00322	69.5894	-49.4894	-20.9027	148.646	-51.0849	12.0652	170.34	-56.1354	35.907	176.663	-29.0872	5.69955	
185	1.54167	188.614	-0.564173	11.4625	172.84	12.2609	-11.4755	141.711	15.0517	-20.1786	121.486	5.16312	-5.91922	136.015	-9.14694	-45.5632	117.329	-3.11416	-64.9997	100.195	1.5617	-78.8107	115.78	-28.0076	-37.4984	97.1822	-22.7924	-51.5717	72.4743	-14.7768	-75.8902	110.992	-35.4387	-20.9464	92.7555	-31.2295	-39.188	69.9613	-28.4315	-53.7841	108.309	-43.6201	2.7301	88.1382	-47.0596	-9.78293	71.6243	-47.6341	-23.7559	150.846	-49.0641	10.0507	170.072	-54.9462	30.1311	179.12	-31.5183	5.81399	
186	1.55	192.591	-4.31911	13.1396	181.926	12.9803	-14.642	151.034	12.3	-22.8944	126.364	4.9246	-11.9987	142.368	-12.7505	-51.2821	129.695	-6.93013	-69.5089	107.962	-1.02783	-89.3238	123.632	-27.6911	-46.6392	102.742	-23.292	-62.0674	84.2954	-15.9125	-82.1375	113.059	-36.8816	-29.6793	98.7901	-35.2633	-42.0217	80.6953	-28.3141	-63.3634	112.366	-43.4368	-3.07247	93.3529	-44.6507	-19.8559	76.9765	-45.9025	-31.4843	151.516	-50.8666	5.23483	170.579	-57.2238	33.9073	184.428	-34.8882	5.18214	
187	1.55833	196.919	-6.82846	12.9839	186.65	8.49294	-17.6604	155.364	7.2558	-28.6254	131.274	1.85953	-19.1967	153.026	-16.7007	-52.7098	138.063	-10.3745	-76.4924	120.858	-6.31123	-95.2754	133.067	-32.4597	-48.472	116.753	-27.7365	-67.6925	93.393	-21.489	-93.6169	119.128	-41.8155	-33.8383	105.013	-37.9409	-49.2396	89.0147	-32.4111	-70.3519	112.381	-49.3446	-9.78633	101.08	-44.8996	-26.7005	86.8932	-47.3488	-41.8026	156.742	-53.5016	5.06397	171.329	-61.2963	30.6058	185.577	-38.1717	-0.436307	
188	1.56667	200.474	-10.4459	12.6434	190.747	1.33543	-18.592	163.664	5.36609	-33.1501	136.451	-1.20953	-26.3983	158.658	-25.3644	-54.3648	148.13	-18.5216	-83.2018	132.784	-17.64	-100.214	139.319	-38.9769	-51.7353	123.053	-33.3932	-77.4024	102.51	-29.3854	-100	127.408	-46.3266	-39.5767	115.751	-42.9092	-55.8949	96.5164	-40.0413	-79.209	116.858	-53.4528	-16.3018	103.409	-52.7047	-32.6401	91.4339	-54.4976	-51.0087	159.079	-60.8335	4.60439	173.446	-63.6859	26.882	189.364	-41.5768	-0.310925	
189	1.575	203.142	-14.6698	11.5976	198.577	-0.545026	-21.9598	168.096	-4.05922	-37.7072	142.458	-8.65704	-31.7561	168.549	-31.8985	-60.3409	156.458	-28.9634	-84.8718	145.127	-29.3435	-104.511	148.032	-47.045	-58.5241	131.998	-45.7995	-76.2376	113.404	-40.1959	-106.776	137.074	-52.4913	-42.3473	123.118	-53.1339	-60.2678	106.371	-51.5617	-83.6905	127.848	-56.9082	-19.3363	114.958	-58.3967	-39.3132	102.946	-61.6641	-58.9329	164.602	-63.7127	4.7379	178.125	-66.9753	24.9457	194.2	-49.2336	4.22799	
190	1.58333	208.965	-16.3405	6.09907	202.253	-8.33157	-25.6509	173.117	-10.9769	-44.2825	149.054	-19.0769	-33.7998	179.043	-39.4044	-59.5424	171.394	-38.3985	-89.1513	162.845	-38.5002	-109.696	159.247	-56.4939	-61.0796	146.919	-54.7255	-87.3748	132.844	-52.8594	-111.888	145.762	-61.8477	-48.6458	136.429	-61.8502	-67.8131	119.811	-63.8401	-88.3598	133.468	-66.4601	-20.3695	125.748	-66.6329	-45.2753	115.134	-70.5823	-61.9071	170.234	-70.3296	2.50871	183.586	-69.6224	27.2599	201.502	-49.7347	1.78351	
